<svg width="81" height="81" viewBox="0 0 81 81" fill="none" xmlns="http://www.w3.org/2000/svg">
<g filter="url(#filter0_d_720_1888)">
<circle cx="40.5" cy="36.5" r="28.5" fill="white"/>
</g>
<path d="M38.5912 33.98H37.6312C36.3112 33.98 35.1912 33.69 34.2712 33.11C33.3512 32.51 32.8912 31.8 32.8912 30.98C32.8912 29.74 33.5212 28.66 34.7812 27.74C36.0412 26.82 37.6712 26.36 39.6712 26.36C40.9712 26.36 41.6212 26.04 41.6212 25.4C41.6212 24.84 41.3512 24.56 40.8112 24.56L40.5712 24.59L40.3912 24.68C40.1112 24.68 39.9712 24.53 39.9712 24.23C39.9712 23.77 40.2712 23.54 40.8712 23.54C41.5312 23.54 42.1012 23.76 42.5812 24.2C43.0612 24.64 43.3012 25.18 43.3012 25.82C43.3012 26.38 43.0612 26.88 42.5812 27.32C42.1212 27.76 41.5512 28.02 40.8712 28.1C39.3912 28.32 38.1712 28.71 37.2112 29.27C36.2512 29.83 35.7712 30.43 35.7712 31.07C35.7712 31.43 35.9412 31.75 36.2812 32.03C36.6412 32.29 37.0712 32.42 37.5712 32.42H38.5312C39.0512 32.42 39.3112 32.68 39.3112 33.2C39.3112 33.72 39.0712 33.98 38.5912 33.98ZM48.6712 38.51C48.6712 40.25 48.0312 41.66 46.7512 42.74C45.5112 43.78 43.8312 44.3 41.7112 44.3C40.6312 44.3 39.4712 43.93 38.2312 43.19C36.9912 42.41 36.2212 41.62 35.9212 40.82C35.6612 40.82 35.4112 41.07 35.1712 41.57C34.9112 42.07 34.7812 42.56 34.7812 43.04C34.7812 44.24 34.9212 45.04 35.2012 45.44C35.4412 45.84 35.9612 46.04 36.7612 46.04C36.7612 46.56 36.5712 46.98 36.1912 47.3C35.7712 47.62 35.2312 47.78 34.5712 47.78C33.8712 47.78 33.2712 47.43 32.7712 46.73C32.2512 45.99 31.9912 45.12 31.9912 44.12C31.9912 43.08 32.5512 41.84 33.6712 40.4C34.7512 38.96 35.7012 38.24 36.5212 38.24C37.3412 39.28 38.2212 40.1 39.1612 40.7C40.1012 41.28 40.9812 41.57 41.8012 41.57C43.0812 41.57 44.0712 41.21 44.7712 40.49C45.4712 39.79 45.8212 38.79 45.8212 37.49C45.8212 36.61 45.6912 35.78 45.4312 35C45.1312 34.24 44.8212 33.86 44.5012 33.86C44.3212 33.86 44.1612 34 44.0212 34.28C43.8812 34.54 43.8112 34.86 43.8112 35.24C43.5512 35.24 43.3112 35.1 43.0912 34.82C42.8912 34.58 42.7912 34.26 42.7912 33.86C42.7912 33.46 42.9312 33.12 43.2112 32.84C43.5112 32.56 43.8512 32.42 44.2312 32.42C45.5912 32.42 46.6712 32.97 47.4712 34.07C48.2712 35.17 48.6712 36.65 48.6712 38.51Z" fill="#3A7ED3"/>
<defs>
<filter id="filter0_d_720_1888" x="0" y="0" width="81" height="81" filterUnits="userSpaceOnUse" color-interpolation-filters="sRGB">
<feFlood flood-opacity="0" result="BackgroundImageFix"/>
<feColorMatrix in="SourceAlpha" type="matrix" values="0 0 0 0 0 0 0 0 0 0 0 0 0 0 0 0 0 0 127 0" result="hardAlpha"/>
<feOffset dy="4"/>
<feGaussianBlur stdDeviation="6"/>
<feComposite in2="hardAlpha" operator="out"/>
<feColorMatrix type="matrix" values="0 0 0 0 0 0 0 0 0 0 0 0 0 0 0 0 0 0 0.25 0"/>
<feBlend mode="normal" in2="BackgroundImageFix" result="effect1_dropShadow_720_1888"/>
<feBlend mode="normal" in="SourceGraphic" in2="effect1_dropShadow_720_1888" result="shape"/>
</filter>
</defs>
</svg>
